<svg width="260" height="307" viewBox="0 0 260 307" fill="none" xmlns="http://www.w3.org/2000/svg">
<path d="M259.626 0V306.897H0V0H259.626ZM154.507 111.993L146.188 108.892C142.134 107.376 139.278 103.745 138.749 99.4795L137.163 86.3301L24.1123 41.7725C26.8266 48.5407 28.4127 54.851 29.2939 59.7861L121.053 97.8223L29.752 62.5713C30.4872 67.3677 30.5268 70.356 30.5273 70.3965L155.247 118.55L155.952 124.648C155.952 124.648 99.1621 111.183 39.3408 126.094C39.376 126.125 47.1217 133.134 43.1475 159.441L17.9434 296.182C18.16 296.123 113.404 270.189 176.186 290.118C150.386 272.449 118.085 267.748 117.986 267.733L117.457 216.584C104.951 210.823 92.6544 209.998 92.5703 209.992L90.1729 264.878C67.33 264.314 49.7393 268.016 49.7393 268.016L69.4102 139.242C79.4271 137.45 95.6812 136.744 95.7773 136.74L93.627 186.057C104.693 187.111 117.091 191.946 117.175 191.979L116.506 136.634C116.603 136.634 137.459 136.683 158.666 142.557L143.05 142.027L151.192 257.44C151.192 257.44 164.941 265.759 179.464 266.993L162.438 121.37L171.639 124.931C174.423 125.988 176.362 128.456 176.785 131.382L178.548 144.037L247.076 171.674C251.686 159.374 251.126 153.649 245.313 145.235L161.662 114.638L160.146 101.523L176.609 106.424L158.948 20.0938C151.666 11.2676 150.044 9.98579 148.373 9.51758L155.635 78.3994L143.085 7.75488C142.119 5.40054 141.325 4.68204 139.56 4.23047L154.507 111.993Z" fill="#C7C7C7"/>
</svg>
