<svg width="260" height="307" viewBox="0 0 260 307" fill="none" xmlns="http://www.w3.org/2000/svg">
<path d="M259.626 0V306.897H0V0H259.626ZM154.507 111.993L146.188 108.892C142.134 107.376 139.278 103.745 138.749 99.4795L137.163 86.3301L24.1123 41.7725C26.8266 48.5407 28.4127 54.851 29.2939 59.7861L121.053 97.8223L29.752 62.5713C30.4876 67.3709 30.5269 70.3599 30.5273 70.3965L155.247 118.55L155.951 124.648C155.76 124.603 99.0613 111.208 39.3408 126.094C39.3833 126.132 47.1199 133.146 43.1475 159.441L17.9434 296.182C18.1626 296.122 113.405 270.189 176.186 290.118C150.389 272.452 118.094 267.749 117.986 267.733L117.457 216.584C104.952 210.823 92.6578 209.998 92.5703 209.992L90.1729 264.878C67.33 264.314 49.7393 268.016 49.7393 268.016L69.4102 139.242C79.428 137.45 95.6843 136.744 95.7773 136.74L93.627 186.057C104.696 187.111 117.096 191.948 117.175 191.979L116.506 136.634C116.608 136.634 137.461 136.684 158.666 142.557L143.05 142.027L151.192 257.44C151.192 257.44 164.94 265.759 179.464 266.993L162.438 121.37L171.639 124.931C174.423 125.988 176.362 128.456 176.785 131.382L178.548 144.037L247.076 171.674C251.686 159.374 251.126 153.649 245.313 145.235L161.662 114.637L160.146 101.523L176.609 106.424L158.948 20.0928C151.666 11.2669 150.044 9.9858 148.373 9.51758L155.635 78.3984L143.085 7.75488C142.119 5.40048 141.325 4.68205 139.56 4.23047L154.507 111.993Z" fill="white"/>
</svg>
