<svg width="512" height="146" viewBox="0 0 512 146" fill="none" xmlns="http://www.w3.org/2000/svg">
<path d="M25.2731 11.3677C26.0003 11.3677 26.5457 11.9132 26.5457 12.6404V20.7308C26.5457 21.458 26.0003 22.0034 25.2731 22.0034H14.9101V35.0935H23.9095C24.6367 35.0935 25.1822 35.6389 25.1822 36.3661V44.4565C25.1822 45.1837 24.6367 45.7292 23.9095 45.7292H14.9101V73.7274C14.9101 74.4546 14.3647 75 13.6375 75H5.54707C4.81984 75 4.27442 74.4546 4.27442 73.7274V12.6404C4.27442 11.9132 4.81984 11.3677 5.54707 11.3677H25.2731ZM65.6625 64.1825C65.6625 70.4548 60.481 75.6363 54.2087 75.6363H50.7544C44.4821 75.6363 39.3006 70.4548 39.3006 64.1825V31.2755C39.3006 25.0032 44.4821 19.8217 50.7544 19.8217H54.2087C60.481 19.8217 65.6625 25.0032 65.6625 31.2755V64.1825ZM55.0268 31.7301C55.0268 30.5483 54.0269 29.5484 52.8452 29.5484H52.1179C50.9362 29.5484 49.9362 30.5483 49.9362 31.7301V63.728C49.9362 64.9097 50.9362 65.9097 52.1179 65.9097H52.8452C54.0269 65.9097 55.0268 64.9097 55.0268 63.728V31.7301ZM107.601 20.4581C108.328 20.4581 108.873 21.0035 108.873 21.7307V73.7274C108.873 74.4546 108.328 75 107.601 75H101.783C101.056 75 100.238 74.4546 100.056 73.8183L90.4201 50.0925V73.7274C90.4201 74.4546 89.8747 75 89.1475 75H81.0571C80.3299 75 79.7845 74.4546 79.7845 73.7274V21.7307C79.7845 21.0035 80.3299 20.4581 81.0571 20.4581H87.0567C87.7839 20.4581 88.6021 21.0035 88.7839 21.6398L98.2378 48.0926V21.7307C98.2378 21.0035 98.7832 20.4581 99.5105 20.4581H107.601ZM146.794 20.4581C147.522 20.4581 148.067 21.0035 148.067 21.7307V29.8211C148.067 30.5483 147.522 31.0937 146.794 31.0937H140.34V73.7274C140.34 74.4546 139.795 75 139.068 75H130.977C130.341 75 129.705 74.4546 129.705 73.7274V31.0937H123.341C122.614 31.0937 122.069 30.5483 122.069 29.8211V21.7307C122.069 21.0035 122.614 20.4581 123.341 20.4581H146.794ZM201.043 11.3677C201.77 11.3677 202.316 11.9132 202.316 12.6404V20.7308C202.316 21.458 201.77 22.0034 201.043 22.0034H190.68V35.0935H199.679C200.407 35.0935 200.952 35.6389 200.952 36.3661V44.4565C200.952 45.1837 200.407 45.7292 199.679 45.7292H190.68V73.7274C190.68 74.4546 190.135 75 189.407 75H181.317C180.59 75 180.044 74.4546 180.044 73.7274V12.6404C180.044 11.9132 180.59 11.3677 181.317 11.3677H201.043ZM226.615 56.9103V73.7274C226.615 74.6364 226.07 75 225.252 75H217.161C216.434 75 215.98 74.4546 215.98 73.7274V21.7307C215.98 21.0035 216.525 20.4581 217.252 20.4581H230.888C237.16 20.4581 242.341 25.6395 242.341 31.9119V43.093C242.341 47.5472 239.251 51.3652 235.524 53.2741L244.16 73.7274C244.341 74.4546 243.978 75 243.25 75H234.978C234.251 75 233.433 74.4546 233.251 73.7274L226.615 56.9103ZM226.615 30.1847V44.8201H229.524C230.706 44.8201 231.706 43.8202 231.706 42.6385V32.3664C231.706 31.1846 230.706 30.1847 229.524 30.1847H226.615ZM283.337 73.7274C283.428 74.4546 282.973 75 282.246 75H273.974C273.246 75 272.701 74.4546 272.61 73.7274L271.883 64.8188H266.247L265.52 73.7274C265.429 74.4546 264.883 75 264.156 75H255.884C255.157 75 254.702 74.4546 254.793 73.7274L261.611 21.7307C261.702 21.0035 262.338 20.4581 263.065 20.4581H275.064C275.792 20.4581 276.428 21.0035 276.519 21.7307L283.337 73.7274ZM266.974 54.6377H271.156L269.428 34.5481H268.701L266.974 54.6377ZM324.011 20.4581C324.738 20.4581 325.284 21.0035 325.284 21.7307V73.7274C325.284 74.4546 324.738 75 324.011 75H318.193C317.466 75 316.648 74.4546 316.466 73.8183L306.83 50.0925V73.7274C306.83 74.4546 306.285 75 305.558 75H297.467C296.74 75 296.194 74.4546 296.194 73.7274V21.7307C296.194 21.0035 296.74 20.4581 297.467 20.4581H303.467C304.194 20.4581 305.012 21.0035 305.194 21.6398L314.648 48.0926V21.7307C314.648 21.0035 315.193 20.4581 315.92 20.4581H324.011ZM354.296 19.8217C360.568 19.8217 365.75 25.0032 365.75 31.2755V36.7297C365.75 37.457 365.204 38.1842 364.568 38.366L356.296 39.6386C355.659 39.8205 355.114 39.4568 355.114 38.7296V31.7301C355.114 30.5483 354.114 29.5484 352.932 29.5484H352.205C351.023 29.5484 350.023 30.5483 350.023 31.7301V63.728C350.023 64.9097 351.023 65.9097 352.205 65.9097H352.932C354.114 65.9097 355.114 64.9097 355.114 63.728V52.8196C355.114 52.0924 355.659 51.7288 356.296 51.9106L364.568 53.0014C365.204 53.1832 365.75 53.9105 365.75 54.6377V64.1825C365.75 70.4548 360.568 75.6363 354.296 75.6363H350.842C344.569 75.6363 339.388 70.4548 339.388 64.1825V31.2755C339.388 25.0032 344.569 19.8217 350.842 19.8217H354.296ZM405.426 20.4581C406.153 20.4581 406.699 21.0035 406.699 21.7307V73.7274C406.699 74.4546 406.153 75 405.426 75H397.336C396.608 75 396.063 74.4546 396.063 73.7274V53.1832H390.063V73.7274C390.063 74.4546 389.518 75 388.791 75H380.7C379.973 75 379.428 74.4546 379.428 73.7274V21.7307C379.428 21.0035 379.973 20.4581 380.7 20.4581H388.791C389.518 20.4581 390.063 21.0035 390.063 21.7307V42.5475H396.063V21.7307C396.063 21.0035 396.608 20.4581 397.336 20.4581H405.426ZM432.301 21.7307V73.7274C432.301 74.4546 431.756 75 431.029 75H422.938C422.211 75 421.666 74.4546 421.666 73.7274V21.7307C421.666 21.0035 422.211 20.4581 422.938 20.4581H431.029C431.756 20.4581 432.301 21.0035 432.301 21.7307ZM460.848 19.8217C467.12 19.8217 472.302 25.0032 472.302 31.2755V34.7299C472.302 35.4571 471.756 36.1843 471.12 36.3661L462.848 38.5478C462.211 38.7296 461.666 38.366 461.666 37.6388V31.7301C461.666 30.5483 460.666 29.5484 459.484 29.5484H458.757C457.575 29.5484 456.575 30.5483 456.575 31.7301V37.2752C456.666 38.5478 456.939 39.5477 457.939 40.4568L469.847 49.3653C471.756 51.0015 472.12 52.7287 472.302 54.9104V64.1825C472.302 70.4548 467.12 75.6363 460.848 75.6363H457.394C451.121 75.6363 445.94 70.4548 445.94 64.1825V59.0919C445.94 58.3647 446.485 57.6375 447.122 57.4557L455.394 55.274C456.03 55.0922 456.575 55.4558 456.575 56.183V63.728C456.575 64.9097 457.575 65.9097 458.757 65.9097H459.484C460.666 65.9097 461.666 64.9097 461.666 63.728V58.092C461.575 56.5466 461.302 55.3649 460.212 54.365L448.485 45.3655C446.667 43.7293 445.94 42.1839 445.94 39.4568V31.2755C445.94 25.0032 451.121 19.8217 457.394 19.8217H460.848ZM506.9 64.3643C507.628 64.3643 508.173 64.9097 508.173 65.637V73.7274C508.173 74.4546 507.628 75 506.9 75H487.174C486.447 75 485.902 74.4546 485.902 73.7274V21.7307C485.902 21.0035 486.447 20.4581 487.174 20.4581H506.9C507.628 20.4581 508.173 21.0035 508.173 21.7307V29.8211C508.173 30.5483 507.628 31.0937 506.9 31.0937H496.537V41.4567H505.537C506.264 41.4567 506.809 42.0021 506.809 42.7294V50.8197C506.809 51.547 506.264 52.0924 505.537 52.0924H496.537V64.3643H506.9Z" fill="black"/>
<path d="M4.09936 108.826L4.0742 98.569L15.2949 98.5415L15.3007 100.922L7.22523 100.941L7.22927 102.585L14.8797 102.566L14.885 104.691L7.23448 104.71L7.23851 106.353L15.4982 106.333L15.5042 108.798L4.09936 108.826ZM28.4987 101.541L28.5165 108.766L25.7963 108.773L25.7934 107.611L25.7651 107.611C25.5208 108.113 25.158 108.454 24.6767 108.634C24.2049 108.805 23.6053 108.892 22.8781 108.894C22.5947 108.894 22.2972 108.886 21.9854 108.867C21.6832 108.859 21.3808 108.826 21.0785 108.771C20.7855 108.705 20.5019 108.607 20.2277 108.475C19.9535 108.344 19.7122 108.16 19.5038 107.924C19.3049 107.689 19.1436 107.392 19.0199 107.033C18.8962 106.674 18.8338 106.235 18.8325 105.716L18.8223 101.565L21.5425 101.558L21.5527 105.709C21.5544 106.418 22.1409 106.77 23.312 106.767L23.9354 106.766C24.521 106.764 24.974 106.631 25.2945 106.366C25.6244 106.101 25.7888 105.708 25.7875 105.189L25.7786 101.548L28.4987 101.541ZM31.9511 108.758L31.9334 101.533L34.4835 101.526L34.4869 102.901L34.5152 102.9C34.5901 102.617 34.7123 102.381 34.8818 102.191C35.0514 101.992 35.2541 101.836 35.4899 101.722C35.7258 101.608 35.9853 101.527 36.2685 101.479C36.5518 101.431 36.8492 101.407 37.1609 101.406C38.1526 101.404 38.8616 101.629 39.2877 102.081C39.7138 102.524 39.9281 103.246 39.9306 104.247C39.9308 104.342 39.9263 104.441 39.9171 104.545C39.9174 104.639 39.9129 104.753 39.9038 104.885L37.552 104.891C37.5514 104.664 37.5321 104.466 37.4939 104.296C37.4651 104.126 37.4034 103.984 37.3086 103.871C37.2139 103.758 37.0815 103.673 36.9113 103.617C36.7412 103.561 36.5191 103.533 36.2452 103.534C35.773 103.535 35.3907 103.63 35.0984 103.82C34.806 104.01 34.6604 104.322 34.6615 104.756L34.6713 108.751L31.9511 108.758ZM42.7682 105.983L42.764 104.255C42.7625 103.659 42.8511 103.178 43.0296 102.809C43.2082 102.431 43.4388 102.137 43.7217 101.929C44.014 101.72 44.3348 101.578 44.684 101.501C45.0428 101.425 45.3969 101.386 45.7463 101.385L49.8124 101.375C50.1619 101.374 50.5114 101.411 50.8611 101.486C51.2202 101.561 51.5417 101.702 51.8255 101.909C52.1188 102.116 52.3557 102.408 52.5361 102.785C52.7164 103.153 52.8073 103.635 52.8088 104.23L52.813 105.958C52.8145 106.553 52.726 107.04 52.5474 107.418C52.3689 107.787 52.1335 108.076 51.8412 108.284C51.5583 108.493 51.2375 108.635 50.8788 108.712C50.5295 108.788 50.1802 108.827 49.8307 108.827L45.7646 108.837C45.4151 108.838 45.0609 108.801 44.7018 108.727C44.3521 108.652 44.0306 108.511 43.7373 108.304C43.4535 108.097 43.2214 107.809 43.041 107.442C42.8606 107.064 42.7697 106.578 42.7682 105.983ZM45.4855 104.772L45.4871 105.452C45.4884 105.972 45.6404 106.325 45.9431 106.514C46.2552 106.702 46.723 106.795 47.3464 106.793L47.9981 106.792C48.4325 106.791 48.7867 106.776 49.0605 106.747C49.3344 106.708 49.5467 106.646 49.6976 106.561C49.858 106.466 49.9616 106.343 50.0084 106.192C50.0647 106.041 50.0926 105.842 50.092 105.597L50.0895 104.605C50.0889 104.369 50.0601 104.175 50.0031 104.024C49.9555 103.864 49.8513 103.741 49.6905 103.657C49.5391 103.563 49.3265 103.502 49.0525 103.474C48.7785 103.437 48.4243 103.419 47.9898 103.42L47.3381 103.422C46.7147 103.423 46.2474 103.519 45.9362 103.708C45.6344 103.898 45.4842 104.253 45.4855 104.772ZM55.7955 106.447L58.6007 106.44C58.6009 106.544 58.6153 106.638 58.6439 106.723C58.6818 106.799 58.7576 106.865 58.8711 106.921C58.9845 106.977 59.1499 107.024 59.3673 107.061C59.594 107.089 59.901 107.103 60.2883 107.102L61.2517 107.099C61.5728 107.099 61.8372 107.093 62.045 107.083C62.2527 107.064 62.418 107.035 62.5407 106.997C62.6633 106.949 62.7482 106.893 62.7953 106.826C62.8423 106.76 62.8657 106.67 62.8654 106.557C62.8649 106.34 62.789 106.189 62.6376 106.104C62.4863 106.01 62.1698 105.964 61.6881 105.965L59.1379 105.971C58.5051 105.973 57.9761 105.936 57.5509 105.862C57.1351 105.778 56.7994 105.642 56.544 105.453C56.2885 105.256 56.1084 104.996 56.0037 104.675C55.899 104.345 55.846 103.93 55.8448 103.429C55.8437 102.976 55.9278 102.617 56.0972 102.352C56.2665 102.077 56.4974 101.869 56.7898 101.727C57.0917 101.575 57.4409 101.475 57.8375 101.427C58.2435 101.378 58.6827 101.354 59.1549 101.352L61.0534 101.348C61.9412 101.346 62.6591 101.382 63.2071 101.456C63.7551 101.521 64.1804 101.638 64.4831 101.807C64.7857 101.967 64.9893 102.188 65.0939 102.471C65.1985 102.754 65.256 103.108 65.2665 103.533L62.5463 103.54C62.5083 103.436 62.4561 103.351 62.3899 103.285C62.333 103.219 62.2338 103.173 62.092 103.145C61.9502 103.107 61.7518 103.084 61.4968 103.075C61.2512 103.057 60.9253 103.048 60.5192 103.049C60.1225 103.05 59.8014 103.056 59.5558 103.066C59.3197 103.076 59.1309 103.1 58.9893 103.138C58.8571 103.176 58.7676 103.233 58.7205 103.309C58.6735 103.375 58.6501 103.469 58.6504 103.592C58.6506 103.668 58.6696 103.734 58.7075 103.79C58.7454 103.847 58.8211 103.894 58.9346 103.931C59.048 103.96 59.2086 103.983 59.4164 104.001C59.6337 104.01 59.9218 104.014 60.2807 104.013L62.165 104.009C62.9772 104.007 63.6149 104.071 64.0781 104.202C64.5506 104.324 64.9005 104.493 65.1277 104.71C65.3644 104.926 65.5114 105.181 65.5688 105.474C65.6356 105.757 65.6694 106.059 65.6702 106.38C65.6714 106.862 65.6157 107.259 65.5031 107.571C65.3905 107.873 65.188 108.119 64.8957 108.309C64.6128 108.489 64.2211 108.613 63.7207 108.68C63.2203 108.757 62.5828 108.796 61.8084 108.798L59.2299 108.804C58.6065 108.806 58.0728 108.769 57.6287 108.695C57.194 108.611 56.8395 108.48 56.5651 108.301C56.3002 108.113 56.106 107.868 55.9824 107.566C55.8589 107.264 55.7966 106.891 55.7955 106.447ZM69.4812 106.257L69.4742 103.396L68.1141 103.399L68.1093 101.444L69.4694 101.44L69.4652 99.7404L72.1854 99.7337L72.1896 101.434L76.4115 101.423L76.4163 103.379L72.1943 103.389L72.2012 106.166C72.2018 106.44 72.292 106.619 72.4717 106.703C72.6607 106.779 72.9206 106.816 73.2512 106.815C73.6951 106.814 73.9924 106.752 74.1433 106.629C74.2941 106.505 74.3691 106.279 74.3683 105.948L74.3671 105.466L76.7472 105.46L76.7494 106.339C76.7502 106.679 76.6896 107 76.5676 107.303C76.455 107.596 76.2761 107.851 76.0311 108.069C75.786 108.287 75.4653 108.458 75.0689 108.581C74.682 108.705 74.2193 108.768 73.681 108.769L72.6042 108.772C72.1887 108.773 71.7919 108.736 71.4139 108.661C71.0359 108.587 70.705 108.455 70.4212 108.267C70.1374 108.079 69.9101 107.824 69.7393 107.504C69.5685 107.173 69.4824 106.758 69.4812 106.257ZM82.7018 101.408L82.7195 108.633L79.9993 108.64L79.9816 101.415L82.7018 101.408ZM82.6943 98.3762L82.6995 100.501L79.9794 100.508L79.9742 98.3828L82.6943 98.3762ZM86.4555 108.624L86.4303 98.367L89.1505 98.3603L89.1757 108.618L86.4555 108.624ZM92.4077 105.294L92.406 104.6C92.4043 103.92 92.4832 103.363 92.6427 102.928C92.8022 102.493 93.0281 102.152 93.3203 101.906C93.6219 101.66 93.9757 101.494 94.3816 101.408C94.7875 101.312 95.2408 101.264 95.7414 101.263L97.6398 101.258C98.3576 101.256 98.9764 101.302 99.4961 101.395C100.016 101.479 100.436 101.638 100.758 101.874C101.089 102.1 101.331 102.415 101.483 102.821C101.645 103.227 101.726 103.742 101.728 104.365L101.731 105.583L95.1286 105.599L95.1297 106.039C95.1307 106.426 95.2683 106.685 95.5425 106.817C95.8167 106.948 96.2372 107.014 96.8039 107.012L97.6398 107.01C98.0081 107.009 98.2961 106.985 98.5038 106.937C98.7115 106.889 98.8625 106.828 98.9567 106.752C99.0604 106.676 99.1216 106.591 99.1403 106.496C99.1684 106.392 99.1823 106.288 99.182 106.185L101.732 106.178L101.733 106.49C101.734 106.943 101.641 107.317 101.452 107.61C101.264 107.894 101.005 108.116 100.675 108.278C100.354 108.439 99.9765 108.549 99.5421 108.606C99.1078 108.674 98.6451 108.708 98.154 108.709L96.1138 108.714C95.6605 108.715 95.2118 108.683 94.7677 108.618C94.333 108.553 93.9407 108.403 93.5907 108.168C93.2406 107.932 92.9564 107.588 92.7381 107.135C92.5197 106.683 92.4096 106.069 92.4077 105.294ZM95.1247 103.984L99.0916 103.975C99.091 103.757 99.0623 103.583 99.0053 103.451C98.9483 103.319 98.8441 103.215 98.6928 103.14C98.5415 103.065 98.3384 103.018 98.0833 103C97.8282 102.972 97.5023 102.958 97.1056 102.959C96.6617 102.961 96.3076 102.976 96.0432 103.005C95.7882 103.024 95.59 103.072 95.4485 103.148C95.3164 103.224 95.227 103.328 95.1801 103.46C95.1426 103.592 95.1241 103.767 95.1247 103.984ZM113.516 108.558L113.491 98.3006L116.636 98.2929L116.655 105.915L123.724 105.898L123.731 108.533L113.516 108.558ZM124.28 100.824L124.274 98.2742L136.259 98.2448L136.266 100.795L131.845 100.806L131.864 108.513L128.719 108.521L128.7 100.813L124.28 100.824ZM147.772 108.474L147.746 98.2166L158.967 98.189L158.973 100.569L150.897 100.589L150.901 102.232L158.552 102.214L158.557 104.339L150.907 104.358L150.911 106.001L159.17 105.981L159.176 108.446L147.772 108.474ZM161.662 108.44L164.741 104.635L161.899 101.214L165.427 101.205L166.82 103.157L168.204 101.198L171.732 101.19L168.907 104.625L172.004 108.414L168.562 108.423L166.827 105.99L165.105 108.431L161.662 108.44ZM175.231 105.998L175.224 103.136L173.864 103.14L173.859 101.184L175.22 101.181L175.215 99.4809L177.936 99.4743L177.94 101.174L182.162 101.164L182.166 103.119L177.945 103.129L177.951 105.906C177.952 106.18 178.042 106.359 178.222 106.444C178.411 106.519 178.671 106.556 179.001 106.555C179.445 106.554 179.743 106.492 179.893 106.369C180.044 106.246 180.119 106.019 180.118 105.689L180.117 105.207L182.497 105.201L182.5 106.079C182.5 106.419 182.44 106.741 182.318 107.043C182.205 107.336 182.026 107.592 181.781 107.81C181.536 108.027 181.216 108.198 180.819 108.322C180.432 108.446 179.97 108.508 179.431 108.51L178.354 108.512C177.939 108.513 177.542 108.476 177.164 108.402C176.786 108.327 176.455 108.196 176.171 108.008C175.888 107.819 175.66 107.565 175.489 107.244C175.319 106.914 175.233 106.499 175.231 105.998ZM185.246 105.067L185.244 104.373C185.242 103.692 185.321 103.135 185.481 102.7C185.64 102.265 185.866 101.925 186.158 101.678C186.46 101.432 186.814 101.266 187.219 101.18C187.625 101.085 188.079 101.036 188.579 101.035L190.478 101.03C191.195 101.029 191.814 101.074 192.334 101.167C192.854 101.251 193.274 101.411 193.596 101.646C193.927 101.872 194.169 102.188 194.321 102.593C194.482 102.999 194.564 103.514 194.566 104.137L194.569 105.356L187.966 105.372L187.968 105.811C187.968 106.198 188.106 106.458 188.38 106.589C188.655 106.721 189.075 106.786 189.642 106.784L190.478 106.782C190.846 106.781 191.134 106.757 191.342 106.709C191.549 106.662 191.7 106.6 191.795 106.524C191.898 106.448 191.959 106.363 191.978 106.269C192.006 106.165 192.02 106.061 192.02 105.957L194.57 105.951L194.571 106.262C194.572 106.716 194.478 107.089 194.29 107.382C194.102 107.666 193.843 107.889 193.513 108.05C193.192 108.211 192.814 108.321 192.38 108.379C191.946 108.446 191.483 108.48 190.992 108.481L188.952 108.486C188.498 108.487 188.05 108.455 187.605 108.39C187.171 108.325 186.779 108.175 186.428 107.94C186.078 107.705 185.794 107.361 185.576 106.908C185.358 106.455 185.247 105.841 185.246 105.067ZM187.962 103.757L191.929 103.747C191.929 103.53 191.9 103.355 191.843 103.223C191.786 103.091 191.682 102.987 191.531 102.912C191.379 102.837 191.176 102.79 190.921 102.772C190.666 102.744 190.34 102.731 189.943 102.732C189.5 102.733 189.145 102.748 188.881 102.777C188.626 102.796 188.428 102.844 188.286 102.92C188.154 102.996 188.065 103.1 188.018 103.232C187.98 103.365 187.962 103.539 187.962 103.757ZM197.667 108.351L197.649 101.126L200.37 101.119L200.372 102.281L200.401 102.281C200.636 101.78 200.994 101.444 201.475 101.272C201.956 101.092 202.56 101.001 203.288 100.999C203.571 100.998 203.864 101.007 204.166 101.025C204.478 101.034 204.78 101.071 205.073 101.136C205.376 101.192 205.664 101.286 205.938 101.417C206.212 101.549 206.449 101.733 206.648 101.968C206.856 102.204 207.022 102.501 207.146 102.86C207.27 103.218 207.332 103.657 207.333 104.177L207.343 108.328L204.623 108.334L204.613 104.183C204.611 103.475 204.025 103.122 202.854 103.125L202.23 103.127C201.645 103.128 201.187 103.261 200.857 103.527C200.537 103.792 200.377 104.184 200.378 104.704L200.387 108.345L197.667 108.351ZM213.219 104.276L213.221 105.126C213.222 105.324 213.236 105.503 213.265 105.664C213.294 105.824 213.356 105.956 213.45 106.06C213.545 106.164 213.687 106.244 213.876 106.3C214.065 106.356 214.325 106.384 214.655 106.383L216.256 106.379C216.521 106.378 216.757 106.359 216.964 106.321C217.172 106.282 217.342 106.216 217.474 106.121C217.615 106.017 217.719 105.88 217.785 105.709C217.86 105.539 217.897 105.317 217.896 105.043L217.895 104.335C217.894 104.061 217.856 103.839 217.78 103.669C217.713 103.499 217.609 103.367 217.467 103.273C217.335 103.17 217.164 103.099 216.956 103.062C216.749 103.025 216.512 103.007 216.248 103.007L214.647 103.011C214.316 103.012 214.057 103.041 213.868 103.098C213.679 103.155 213.538 103.236 213.444 103.34C213.349 103.444 213.288 103.576 213.26 103.737C213.232 103.898 213.219 104.077 213.219 104.276ZM210.587 105.359L210.583 104.055C210.582 103.593 210.619 103.172 210.694 102.794C210.778 102.416 210.952 102.095 211.216 101.829C211.489 101.555 211.88 101.346 212.39 101.203C212.9 101.051 213.584 100.974 214.444 100.971L215.251 100.97C215.535 100.969 215.809 100.992 216.073 101.038C216.347 101.075 216.598 101.15 216.825 101.263C217.052 101.376 217.241 101.527 217.392 101.715C217.544 101.894 217.644 102.125 217.692 102.409L217.72 102.409L217.709 98.0449L220.429 98.0383L220.455 108.296L217.904 108.302L217.901 106.97L217.873 106.97C217.798 107.197 217.694 107.4 217.563 107.58C217.44 107.75 217.275 107.902 217.068 108.035C216.86 108.158 216.606 108.253 216.304 108.32C216.011 108.387 215.661 108.421 215.255 108.422L214.462 108.424C213.602 108.426 212.918 108.357 212.407 108.216C211.897 108.066 211.504 107.859 211.23 107.596C210.965 107.322 210.789 106.997 210.703 106.619C210.627 106.242 210.588 105.822 210.587 105.359ZM223.541 104.973L223.539 104.279C223.538 103.599 223.617 103.041 223.776 102.606C223.936 102.171 224.161 101.831 224.454 101.584C224.755 101.338 225.109 101.172 225.515 101.086C225.921 100.991 226.374 100.942 226.875 100.941L228.773 100.936C229.491 100.935 230.11 100.98 230.629 101.073C231.149 101.157 231.57 101.317 231.892 101.552C232.223 101.778 232.464 102.094 232.616 102.5C232.778 102.905 232.86 103.42 232.861 104.043L232.864 105.262L226.262 105.278L226.263 105.717C226.264 106.104 226.402 106.364 226.676 106.495C226.95 106.627 227.371 106.692 227.937 106.69L228.773 106.688C229.141 106.687 229.429 106.663 229.637 106.615C229.845 106.568 229.996 106.506 230.09 106.43C230.194 106.354 230.255 106.269 230.274 106.175C230.302 106.071 230.316 105.967 230.315 105.863L232.865 105.857L232.866 106.168C232.867 106.622 232.774 106.995 232.586 107.288C232.397 107.572 232.138 107.795 231.808 107.956C231.487 108.117 231.11 108.227 230.675 108.285C230.241 108.352 229.778 108.386 229.287 108.387L227.247 108.392C226.794 108.393 226.345 108.361 225.901 108.296C225.466 108.231 225.074 108.081 224.724 107.846C224.374 107.611 224.09 107.267 223.871 106.814C223.653 106.361 223.543 105.747 223.541 104.973ZM226.258 103.663L230.225 103.653C230.224 103.436 230.196 103.261 230.139 103.129C230.082 102.997 229.977 102.893 229.826 102.818C229.675 102.743 229.472 102.696 229.217 102.678C228.962 102.65 228.636 102.637 228.239 102.638C227.795 102.639 227.441 102.654 227.176 102.683C226.922 102.702 226.723 102.75 226.582 102.826C226.45 102.902 226.36 103.006 226.313 103.138C226.276 103.271 226.257 103.445 226.258 103.663ZM238.404 104.214L238.406 105.064C238.406 105.262 238.421 105.442 238.45 105.602C238.478 105.763 238.54 105.895 238.635 105.998C238.729 106.102 238.871 106.182 239.06 106.238C239.249 106.294 239.509 106.322 239.84 106.321L241.441 106.317C241.705 106.317 241.941 106.297 242.149 106.259C242.357 106.221 242.526 106.154 242.658 106.059C242.8 105.955 242.903 105.818 242.969 105.648C243.044 105.477 243.082 105.255 243.081 104.982L243.079 104.273C243.078 103.999 243.04 103.777 242.964 103.608C242.898 103.438 242.793 103.306 242.651 103.212C242.519 103.108 242.349 103.038 242.141 103C241.933 102.963 241.697 102.945 241.432 102.945L239.831 102.949C239.501 102.95 239.241 102.979 239.052 103.036C238.864 103.093 238.722 103.174 238.628 103.278C238.534 103.382 238.473 103.515 238.445 103.675C238.417 103.836 238.403 104.015 238.404 104.214ZM235.771 105.297L235.768 103.994C235.767 103.531 235.804 103.11 235.878 102.732C235.962 102.354 236.136 102.033 236.4 101.768C236.673 101.493 237.065 101.284 237.574 101.141C238.084 100.989 238.769 100.912 239.628 100.91L240.436 100.908C240.719 100.907 240.993 100.93 241.258 100.977C241.532 101.014 241.782 101.089 242.009 101.201C242.236 101.314 242.425 101.465 242.577 101.653C242.728 101.832 242.828 102.064 242.876 102.347L242.904 102.347L242.894 97.9832L245.614 97.9765L245.639 108.234L243.089 108.24L243.086 106.908L243.057 106.908C242.982 107.135 242.879 107.339 242.747 107.518C242.625 107.689 242.46 107.84 242.252 107.973C242.045 108.096 241.79 108.191 241.488 108.258C241.195 108.325 240.846 108.359 240.44 108.36L239.646 108.362C238.787 108.364 238.102 108.295 237.592 108.154C237.081 108.004 236.689 107.798 236.414 107.534C236.149 107.261 235.974 106.935 235.888 106.558C235.811 106.18 235.772 105.76 235.771 105.297ZM257.69 108.204L257.681 104.719C257.679 104.086 257.9 103.576 258.343 103.187C258.786 102.79 259.513 102.552 260.523 102.474L264.121 102.238C264.697 102.199 265.146 102.165 265.467 102.136C265.797 102.097 266.043 102.04 266.203 101.964C266.363 101.888 266.462 101.779 266.5 101.637C266.547 101.495 266.57 101.297 266.569 101.042C266.569 100.834 266.554 100.664 266.525 100.532C266.497 100.4 266.412 100.296 266.27 100.221C266.137 100.146 265.929 100.094 265.646 100.067C265.363 100.039 264.971 100.026 264.47 100.027L262.387 100.032C262.057 100.033 261.778 100.053 261.552 100.091C261.325 100.12 261.146 100.182 261.014 100.276C260.882 100.362 260.787 100.489 260.731 100.66C260.675 100.82 260.647 101.033 260.648 101.297L260.649 101.737L257.674 101.744L257.671 100.54C257.669 100.03 257.744 99.6043 257.894 99.264C258.045 98.9141 258.28 98.6349 258.601 98.4263C258.931 98.2083 259.351 98.0561 259.86 97.9699C260.37 97.8742 260.979 97.8255 261.688 97.8237L265.825 97.8136C266.561 97.8118 267.166 97.8669 267.638 97.9791C268.12 98.0913 268.503 98.2698 268.787 98.5147C269.071 98.7596 269.266 99.0708 269.37 99.4483C269.485 99.8258 269.543 100.284 269.544 100.822C269.546 101.578 269.5 102.187 269.407 102.65C269.313 103.113 269.116 103.477 268.814 103.742C268.522 104.008 268.098 104.198 267.541 104.312C266.984 104.427 266.247 104.509 265.331 104.559L262.087 104.737C261.757 104.756 261.492 104.79 261.294 104.838C261.096 104.885 260.94 104.957 260.827 105.051C260.723 105.137 260.653 105.26 260.615 105.42C260.587 105.571 260.574 105.76 260.574 105.987L269.698 105.965L269.704 108.175L257.69 108.204ZM281.879 108.145L281.854 97.8876L290.907 97.8654C291.531 97.8638 292.074 97.9097 292.537 98.0031C293.009 98.0869 293.402 98.2371 293.714 98.4535C294.026 98.6606 294.258 98.9386 294.41 99.2877C294.562 99.6274 294.639 100.047 294.64 100.548C294.641 100.992 294.604 101.351 294.529 101.625C294.454 101.899 294.346 102.121 294.205 102.292C294.073 102.462 293.913 102.59 293.724 102.675C293.545 102.761 293.347 102.837 293.13 102.904L293.13 102.946C293.82 103.029 294.307 103.264 294.591 103.651C294.875 104.037 295.018 104.618 295.02 105.392C295.022 105.959 294.943 106.422 294.783 106.781C294.633 107.131 294.416 107.406 294.133 107.605C293.86 107.804 293.529 107.942 293.142 108.018C292.765 108.085 292.349 108.119 291.896 108.12L281.879 108.145ZM285.015 104.071L285.019 105.672L290.657 105.658C290.997 105.657 291.271 105.609 291.479 105.514C291.686 105.41 291.79 105.207 291.789 104.905C291.788 104.555 291.684 104.329 291.476 104.225C291.267 104.112 290.993 104.056 290.653 104.057L285.015 104.071ZM285.006 100.345L285.009 101.946L290.577 101.932C290.87 101.932 291.097 101.874 291.257 101.761C291.417 101.637 291.497 101.429 291.496 101.137C291.496 100.834 291.415 100.627 291.254 100.514C291.093 100.391 290.866 100.331 290.573 100.331L285.006 100.345ZM298.159 105.356L298.154 103.628C298.153 103.033 298.242 102.551 298.42 102.182C298.599 101.804 298.829 101.511 299.112 101.302C299.404 101.094 299.725 100.951 300.074 100.875C300.433 100.798 300.787 100.76 301.137 100.759L305.203 100.749C305.552 100.748 305.902 100.785 306.252 100.86C306.611 100.934 306.932 101.075 307.216 101.282C307.509 101.489 307.746 101.782 307.926 102.159C308.107 102.527 308.198 103.008 308.199 103.603L308.203 105.332C308.205 105.927 308.116 106.413 307.938 106.792C307.759 107.161 307.524 107.449 307.232 107.658C306.949 107.866 306.628 108.009 306.269 108.085C305.92 108.161 305.571 108.2 305.221 108.201L301.155 108.211C300.806 108.212 300.451 108.175 300.092 108.1C299.743 108.026 299.421 107.885 299.128 107.678C298.844 107.47 298.612 107.183 298.431 106.815C298.251 106.438 298.16 105.951 298.159 105.356ZM300.876 104.146L300.878 104.826C300.879 105.345 301.031 105.699 301.334 105.887C301.646 106.075 302.113 106.168 302.737 106.167L303.388 106.165C303.823 106.164 304.177 106.149 304.451 106.12C304.725 106.082 304.937 106.02 305.088 105.934C305.248 105.84 305.352 105.717 305.399 105.565C305.455 105.414 305.483 105.216 305.482 104.97L305.48 103.978C305.479 103.742 305.451 103.549 305.394 103.398C305.346 103.237 305.242 103.115 305.081 103.03C304.93 102.936 304.717 102.875 304.443 102.848C304.169 102.81 303.815 102.792 303.38 102.793L302.729 102.795C302.105 102.797 301.638 102.892 301.327 103.082C301.025 103.271 300.875 103.626 300.876 104.146ZM311.616 108.072L311.591 97.8146L314.312 97.808L314.337 108.065L311.616 108.072ZM320.358 104.013L320.36 104.863C320.36 105.061 320.375 105.241 320.404 105.401C320.433 105.562 320.494 105.694 320.589 105.797C320.684 105.901 320.826 105.981 321.015 106.037C321.204 106.093 321.463 106.121 321.794 106.12L323.395 106.116C323.659 106.116 323.895 106.096 324.103 106.058C324.311 106.02 324.481 105.953 324.613 105.858C324.754 105.754 324.858 105.617 324.923 105.447C324.999 105.276 325.036 105.054 325.035 104.78L325.033 104.072C325.033 103.798 324.994 103.576 324.918 103.406C324.852 103.237 324.748 103.105 324.606 103.011C324.473 102.907 324.303 102.837 324.095 102.799C323.887 102.762 323.651 102.744 323.387 102.744L321.786 102.748C321.455 102.749 321.196 102.778 321.007 102.835C320.818 102.892 320.677 102.973 320.582 103.077C320.488 103.181 320.427 103.314 320.399 103.474C320.371 103.635 320.357 103.814 320.358 104.013ZM317.725 105.096L317.722 103.793C317.721 103.33 317.758 102.909 317.832 102.531C317.917 102.153 318.09 101.832 318.354 101.567C318.628 101.292 319.019 101.083 319.529 100.94C320.038 100.788 320.723 100.711 321.582 100.709L322.39 100.707C322.673 100.706 322.947 100.729 323.212 100.775C323.486 100.813 323.736 100.888 323.963 101C324.19 101.113 324.38 101.264 324.531 101.452C324.683 101.631 324.782 101.863 324.83 102.146L324.859 102.146L324.848 97.7821L327.568 97.7754L327.593 108.033L325.043 108.039L325.04 106.707L325.012 106.707C324.937 106.934 324.833 107.138 324.701 107.317C324.579 107.488 324.414 107.639 324.207 107.772C323.999 107.895 323.744 107.99 323.442 108.057C323.15 108.124 322.8 108.158 322.394 108.159L321.601 108.161C320.741 108.163 320.056 108.094 319.546 107.953C319.035 107.803 318.643 107.597 318.368 107.333C318.103 107.06 317.928 106.734 317.842 106.357C317.765 105.979 317.727 105.559 317.725 105.096Z" fill="black"/>
<path d="M4.38952 136.845L4.36436 126.588L14.4375 126.563L14.4403 127.697L5.75556 127.718L5.76359 130.991L14.1083 130.97L14.1111 132.103L5.76637 132.124L5.77516 135.708L14.5165 135.687L14.5193 136.82L4.38952 136.845ZM25.7578 136.793L25.7548 135.546L25.7264 135.546C25.2758 136.666 24.3272 136.91 22.8113 136.913L20.9836 136.918C18.7027 136.923 17.9773 135.778 17.9741 134.474L17.9621 129.586L19.1805 129.583L19.1918 134.174C19.1944 135.236 19.4936 135.93 21.8596 135.924L22.1713 135.923C25.019 135.916 25.6693 135.376 25.6652 133.676L25.6551 129.567L26.8735 129.564L26.8912 136.79L25.7578 136.793ZM30.8442 136.78L30.8265 129.555L31.9599 129.552L31.9624 130.6L31.9908 130.6C32.4418 129.664 33.3622 129.435 34.1981 129.433L35.3456 129.43C37.6266 129.425 38.3793 130.16 38.3836 131.931L38.3858 132.795L37.2524 132.798L37.2516 132.486C37.2472 130.701 36.8782 130.418 34.7105 130.424L33.9597 130.426C32.6704 130.429 32.0491 131.252 32.0513 132.187L32.0626 136.777L30.8442 136.78ZM41.1456 133.936L41.1417 132.349C41.1359 129.969 42.8205 129.412 45.1298 129.406L46.8724 129.402C49.1817 129.396 50.869 129.945 50.8748 132.325L50.8787 133.912C50.8845 136.292 49.2 136.849 46.8907 136.854L45.148 136.858C42.8387 136.864 41.1514 136.316 41.1456 133.936ZM49.6601 133.844L49.6566 132.399C49.6524 130.713 48.6599 130.389 47.2432 130.393L44.7638 130.399C43.3471 130.402 42.3562 130.731 42.3603 132.417L42.3638 133.862C42.368 135.548 43.3605 135.871 44.7773 135.868L47.2566 135.862C48.6733 135.858 49.6643 135.53 49.6601 133.844ZM54.2302 134.669L54.2291 134.229L55.3625 134.227L55.3634 134.581C55.3656 135.473 55.834 135.841 57.0808 135.837L59.6876 135.831C61.5152 135.827 62.0959 135.754 62.0933 134.678L62.0931 134.621C62.0914 133.927 61.8921 133.545 60.4329 133.548L56.6785 133.557C54.9642 133.562 54.3253 133.011 54.3219 131.636L54.3209 131.211C54.318 130.036 54.9823 129.382 57.9858 129.375L59.8559 129.37C62.6044 129.363 62.9889 130.156 62.9914 131.176L62.9923 131.559L61.8589 131.561L61.8588 131.49C61.8561 130.385 61.1193 130.359 59.7875 130.362L57.6624 130.367C55.9198 130.372 55.5377 130.543 55.5397 131.364L55.5404 131.633C55.5418 132.229 55.741 132.568 57.0161 132.565L60.2321 132.557C62.0597 132.553 63.3069 132.734 63.3117 134.689L63.3118 134.717C63.3168 136.743 61.4468 136.819 59.9592 136.822L57.7207 136.828C55.9215 136.832 54.2355 136.836 54.2302 134.669ZM67.5424 134.523L67.5325 130.456L65.9457 130.46L65.9433 129.469L67.53 129.465L67.5258 127.75L68.7442 127.747L68.7484 129.462L73.5796 129.45L73.582 130.442L68.7509 130.453L68.7597 134.052C68.763 135.398 69.2315 135.808 70.5633 135.804L70.9458 135.803C72.5609 135.8 72.8151 135.459 72.8114 133.943L72.8101 133.405L73.8018 133.402L73.8037 134.196C73.8073 135.641 73.6684 136.789 71.0333 136.795L70.3674 136.797C68.0864 136.802 67.5453 135.698 67.5424 134.523ZM77.0226 136.667L77.0049 129.442L78.2233 129.439L78.241 136.664L77.0226 136.667ZM77.0007 127.741L76.9975 126.41L78.2159 126.407L78.2192 127.738L77.0007 127.741ZM82.4412 136.654L82.416 126.396L83.6344 126.393L83.6596 136.651L82.4412 136.654ZM95.3861 132.23L95.3849 131.748C95.3831 131.012 94.8287 130.276 92.8453 130.281L91.0602 130.285C89.1334 130.29 88.6808 130.603 88.5715 132.247L95.3861 132.23ZM87.3569 133.794L87.353 132.221C87.3466 129.6 89.1593 129.298 90.8877 129.294L92.8428 129.289C95.0246 129.284 96.5986 129.833 96.6049 132.411L96.6069 133.219L88.5739 133.238L88.575 133.692C88.579 135.335 89.3735 135.758 91.4986 135.753L93.1704 135.749C94.7005 135.745 95.3234 135.545 95.3915 134.44L96.6099 134.437L96.6102 134.579C96.6143 136.236 95.2413 136.736 92.9745 136.741L90.7643 136.747C89.1776 136.75 87.3634 136.457 87.3569 133.794ZM108.687 136.589L108.662 126.332L110.05 126.329L110.073 135.452L118.035 135.433L118.038 136.566L108.687 136.589ZM123.567 136.553L123.545 127.429L118.36 127.442L118.357 126.308L130.116 126.279L130.119 127.413L124.933 127.425L124.956 136.549L123.567 136.553ZM141.697 136.508L141.672 126.251L151.745 126.226L151.748 127.36L143.063 127.381L143.071 130.654L151.416 130.633L151.419 131.767L143.074 131.787L143.083 135.371L151.824 135.35L151.827 136.483L141.697 136.508ZM154.211 136.478L158.154 132.614L154.717 129.251L156.389 129.247L159.017 131.89L161.631 129.234L163.303 129.23L159.883 132.61L163.845 136.454L162.102 136.458L159.02 133.335L155.954 136.473L154.211 136.478ZM167.274 134.278L167.264 130.212L165.677 130.216L165.675 129.224L167.262 129.22L167.258 127.506L168.476 127.503L168.48 129.217L173.311 129.205L173.314 130.197L168.483 130.209L168.491 133.807C168.495 135.153 168.963 135.563 170.295 135.56L170.678 135.559C172.293 135.555 172.547 135.214 172.543 133.698L172.542 133.16L173.534 133.157L173.535 133.951C173.539 135.396 173.4 136.544 170.765 136.55L170.099 136.552C167.818 136.558 167.277 135.454 167.274 134.278ZM184.281 132.012L184.28 131.53C184.278 130.793 183.723 130.058 181.74 130.063L179.955 130.067C178.028 130.072 177.575 130.385 177.466 132.029L184.281 132.012ZM176.252 133.576L176.248 132.003C176.241 129.382 178.054 129.08 179.782 129.076L181.738 129.071C183.919 129.066 185.493 129.615 185.5 132.193L185.502 133.001L177.469 133.02L177.47 133.474C177.474 135.117 178.268 135.54 180.393 135.535L182.065 135.531C183.595 135.527 184.218 135.327 184.286 134.222L185.505 134.219L185.505 134.361C185.509 136.018 184.136 136.518 181.869 136.523L179.659 136.529C178.072 136.532 176.258 136.239 176.252 133.576ZM188.976 136.392L188.958 129.167L190.092 129.164L190.095 130.411L190.123 130.411C190.574 129.29 191.522 129.047 193.038 129.044L194.866 129.039C197.147 129.033 197.872 130.179 197.875 131.483L197.887 136.37L196.669 136.373L196.658 131.783C196.655 130.721 196.356 130.027 193.99 130.033L193.678 130.034C190.831 130.041 190.18 130.581 190.184 132.281L190.194 136.389L188.976 136.392ZM202.623 131.995L202.627 133.412C202.63 134.815 203.071 135.479 205.054 135.474L207.038 135.47C208.851 135.465 209.43 134.699 209.427 133.381L209.424 132.007C209.419 130.278 208.413 129.998 206.769 130.002L205.126 130.006C203.454 130.01 202.619 130.323 202.623 131.995ZM210.627 126.082L210.653 136.339L209.519 136.342L209.516 135.194L209.488 135.194C209.136 136.074 208.145 136.459 206.87 136.462L205.17 136.466C202.96 136.471 201.414 135.923 201.408 133.429L201.405 132.154C201.399 129.845 202.29 129.021 205.223 129.014L207.079 129.009C208.467 129.006 209.134 129.33 209.39 130.08L209.419 130.08L209.409 126.085L210.627 126.082ZM222.203 131.919L222.202 131.437C222.2 130.7 221.645 129.965 219.662 129.97L217.877 129.974C215.95 129.979 215.497 130.292 215.388 131.936L222.203 131.919ZM214.174 133.483L214.17 131.91C214.163 129.289 215.976 128.987 217.704 128.983L219.66 128.978C221.841 128.973 223.415 129.522 223.422 132.1L223.424 132.908L215.391 132.927L215.392 133.381C215.396 135.024 216.19 135.447 218.315 135.442L219.987 135.438C221.517 135.434 222.14 135.234 222.208 134.129L223.427 134.126L223.427 134.268C223.431 135.925 222.058 136.425 219.791 136.43L217.581 136.435C215.994 136.439 214.18 136.146 214.174 133.483ZM227.78 131.933L227.783 133.35C227.787 134.753 228.228 135.418 230.211 135.413L232.194 135.408C234.008 135.403 234.587 134.637 234.584 133.319L234.58 131.945C234.576 130.217 233.569 129.936 231.926 129.94L230.283 129.944C228.611 129.948 227.776 130.262 227.78 131.933ZM235.784 126.02L235.809 136.277L234.676 136.28L234.673 135.133L234.645 135.133C234.293 136.012 233.302 136.397 232.027 136.4L230.327 136.404C228.117 136.41 226.571 135.861 226.565 133.367L226.562 132.092C226.556 129.783 227.447 128.959 230.379 128.952L232.235 128.947C233.624 128.944 234.29 129.268 234.547 130.018L234.576 130.018L234.566 126.023L235.784 126.02ZM247.943 136.248L247.939 134.434C247.933 132.196 249.022 131.612 251.346 131.436L255.907 131.099C257.904 130.953 258.073 130.442 258.07 129.139C258.066 127.651 257.753 126.986 255.911 126.991L251.604 127.001C250.13 127.005 249.267 127.163 249.272 129.203L249.273 129.77L247.97 129.773L247.967 128.81C247.962 126.656 249.136 125.874 251.559 125.868L255.894 125.857C258.841 125.85 259.368 127.181 259.373 129.207C259.38 131.941 258.346 132.114 254.975 132.348L252.85 132.495C249.592 132.716 249.238 132.844 249.241 134.204L249.244 135.111L259.529 135.086L259.532 136.219L247.943 136.248Z" fill="black"/>
</svg>
