<svg width="1247" height="595" viewBox="0 0 1247 595" fill="none" xmlns="http://www.w3.org/2000/svg">
<rect x="648" y="318" width="277" height="277" fill="#8A8A8A"/>
<path d="M718.051 472.418C716.002 472.418 714.193 472.055 712.622 471.329C711.06 470.593 709.842 469.584 708.967 468.301C708.092 467.009 707.66 465.537 707.67 463.886C707.66 462.594 707.913 461.401 708.43 460.307C708.948 459.203 709.653 458.283 710.548 457.548C711.453 456.802 712.462 456.33 713.576 456.131V455.952C712.114 455.574 710.951 454.754 710.086 453.491C709.221 452.218 708.793 450.771 708.803 449.151C708.793 447.599 709.186 446.212 709.982 444.989C710.777 443.766 711.871 442.802 713.263 442.096C714.665 441.39 716.261 441.037 718.051 441.037C719.82 441.037 721.401 441.39 722.793 442.096C724.185 442.802 725.279 443.766 726.075 444.989C726.88 446.212 727.288 447.599 727.298 449.151C727.288 450.771 726.845 452.218 725.97 453.491C725.105 454.754 723.957 455.574 722.525 455.952V456.131C723.629 456.33 724.623 456.802 725.508 457.548C726.393 458.283 727.099 459.203 727.626 460.307C728.153 461.401 728.421 462.594 728.431 463.886C728.421 465.537 727.974 467.009 727.089 468.301C726.214 469.584 724.996 470.593 723.435 471.329C721.884 472.055 720.089 472.418 718.051 472.418ZM718.051 469.136C719.433 469.136 720.626 468.913 721.63 468.465C722.634 468.018 723.41 467.386 723.957 466.571C724.504 465.756 724.782 464.801 724.792 463.707C724.782 462.554 724.484 461.535 723.897 460.65C723.31 459.765 722.51 459.069 721.496 458.562C720.492 458.055 719.343 457.801 718.051 457.801C716.748 457.801 715.585 458.055 714.56 458.562C713.546 459.069 712.746 459.765 712.159 460.65C711.582 461.535 711.299 462.554 711.309 463.707C711.299 464.801 711.563 465.756 712.1 466.571C712.646 467.386 713.427 468.018 714.441 468.465C715.455 468.913 716.658 469.136 718.051 469.136ZM718.051 454.639C719.144 454.639 720.114 454.42 720.959 453.983C721.814 453.545 722.485 452.934 722.972 452.148C723.46 451.363 723.708 450.443 723.718 449.389C723.708 448.355 723.465 447.455 722.987 446.69C722.51 445.914 721.849 445.317 721.004 444.9C720.158 444.472 719.174 444.259 718.051 444.259C716.907 444.259 715.908 444.472 715.053 444.9C714.198 445.317 713.536 445.914 713.069 446.69C712.602 447.455 712.373 448.355 712.383 449.389C712.373 450.443 712.607 451.363 713.084 452.148C713.571 452.934 714.242 453.545 715.097 453.983C715.953 454.42 716.937 454.639 718.051 454.639ZM735.937 472H732.059L743.275 441.455H747.093L758.309 472H754.431L745.304 446.287H745.065L735.937 472ZM737.369 460.068H753V463.349H737.369V460.068ZM772.314 472.418C770.266 472.418 768.456 472.055 766.885 471.329C765.324 470.593 764.106 469.584 763.231 468.301C762.356 467.009 761.924 465.537 761.934 463.886C761.924 462.594 762.177 461.401 762.694 460.307C763.211 459.203 763.917 458.283 764.812 457.548C765.717 456.802 766.726 456.33 767.84 456.131V455.952C766.378 455.574 765.215 454.754 764.35 453.491C763.485 452.218 763.057 450.771 763.067 449.151C763.057 447.599 763.45 446.212 764.245 444.989C765.041 443.766 766.134 442.802 767.527 442.096C768.929 441.39 770.524 441.037 772.314 441.037C774.084 441.037 775.665 441.39 777.057 442.096C778.449 442.802 779.543 443.766 780.338 444.989C781.144 446.212 781.551 447.599 781.561 449.151C781.551 450.771 781.109 452.218 780.234 453.491C779.369 454.754 778.22 455.574 776.789 455.952V456.131C777.892 456.33 778.887 456.802 779.772 457.548C780.657 458.283 781.362 459.203 781.889 460.307C782.416 461.401 782.685 462.594 782.695 463.886C782.685 465.537 782.237 467.009 781.353 468.301C780.478 469.584 779.259 470.593 777.698 471.329C776.147 472.055 774.353 472.418 772.314 472.418ZM772.314 469.136C773.696 469.136 774.889 468.913 775.894 468.465C776.898 468.018 777.674 467.386 778.22 466.571C778.767 465.756 779.046 464.801 779.056 463.707C779.046 462.554 778.747 461.535 778.161 460.65C777.574 459.765 776.774 459.069 775.76 458.562C774.755 458.055 773.607 457.801 772.314 457.801C771.012 457.801 769.848 458.055 768.824 458.562C767.81 459.069 767.009 459.765 766.423 460.65C765.846 461.535 765.563 462.554 765.573 463.707C765.563 464.801 765.826 465.756 766.363 466.571C766.91 467.386 767.691 468.018 768.705 468.465C769.719 468.913 770.922 469.136 772.314 469.136ZM772.314 454.639C773.408 454.639 774.377 454.42 775.223 453.983C776.078 453.545 776.749 452.934 777.236 452.148C777.723 451.363 777.972 450.443 777.982 449.389C777.972 448.355 777.728 447.455 777.251 446.69C776.774 445.914 776.112 445.317 775.267 444.9C774.422 444.472 773.438 444.259 772.314 444.259C771.171 444.259 770.171 444.472 769.316 444.9C768.461 445.317 767.8 445.914 767.333 446.69C766.865 447.455 766.637 448.355 766.647 449.389C766.637 450.443 766.87 451.363 767.348 452.148C767.835 452.934 768.506 453.545 769.361 453.983C770.216 454.42 771.201 454.639 772.314 454.639ZM790.201 472H786.323L797.539 441.455H801.357L812.573 472H808.695L799.567 446.287H799.329L790.201 472ZM791.633 460.068H807.263V463.349H791.633V460.068ZM826.578 472.418C824.53 472.418 822.72 472.055 821.149 471.329C819.588 470.593 818.37 469.584 817.495 468.301C816.62 467.009 816.187 465.537 816.197 463.886C816.187 462.594 816.441 461.401 816.958 460.307C817.475 459.203 818.181 458.283 819.076 457.548C819.981 456.802 820.99 456.33 822.103 456.131V455.952C820.642 455.574 819.478 454.754 818.613 453.491C817.748 452.218 817.321 450.771 817.331 449.151C817.321 447.599 817.714 446.212 818.509 444.989C819.304 443.766 820.398 442.802 821.79 442.096C823.192 441.39 824.788 441.037 826.578 441.037C828.348 441.037 829.929 441.39 831.321 442.096C832.713 442.802 833.807 443.766 834.602 444.989C835.407 446.212 835.815 447.599 835.825 449.151C835.815 450.771 835.373 452.218 834.498 453.491C833.633 454.754 832.484 455.574 831.052 455.952V456.131C832.156 456.33 833.15 456.802 834.035 457.548C834.92 458.283 835.626 459.203 836.153 460.307C836.68 461.401 836.949 462.594 836.959 463.886C836.949 465.537 836.501 467.009 835.616 468.301C834.741 469.584 833.523 470.593 831.962 471.329C830.411 472.055 828.616 472.418 826.578 472.418ZM826.578 469.136C827.96 469.136 829.153 468.913 830.157 468.465C831.162 468.018 831.937 467.386 832.484 466.571C833.031 465.756 833.309 464.801 833.319 463.707C833.309 462.554 833.011 461.535 832.424 460.65C831.838 459.765 831.037 459.069 830.023 458.562C829.019 458.055 827.87 457.801 826.578 457.801C825.275 457.801 824.112 458.055 823.088 458.562C822.074 459.069 821.273 459.765 820.687 460.65C820.11 461.535 819.826 462.554 819.836 463.707C819.826 464.801 820.09 465.756 820.627 466.571C821.174 467.386 821.954 468.018 822.968 468.465C823.983 468.913 825.186 469.136 826.578 469.136ZM826.578 454.639C827.672 454.639 828.641 454.42 829.486 453.983C830.341 453.545 831.013 452.934 831.5 452.148C831.987 451.363 832.236 450.443 832.245 449.389C832.236 448.355 831.992 447.455 831.515 446.69C831.037 445.914 830.376 445.317 829.531 444.9C828.686 444.472 827.701 444.259 826.578 444.259C825.434 444.259 824.435 444.472 823.58 444.9C822.725 445.317 822.064 445.914 821.596 446.69C821.129 447.455 820.9 448.355 820.91 449.389C820.9 450.443 821.134 451.363 821.611 452.148C822.098 452.934 822.77 453.545 823.625 453.983C824.48 454.42 825.464 454.639 826.578 454.639ZM844.464 472H840.587L851.802 441.455H855.621L866.837 472H862.959L853.831 446.287H853.592L844.464 472ZM845.896 460.068H861.527V463.349H845.896V460.068Z" fill="white"/>
<rect x="648" width="277" height="277" fill="#2F2F2F"/>
<path d="M714.542 154V151.315L724.624 140.278C725.807 138.986 726.782 137.862 727.547 136.908C728.313 135.943 728.88 135.038 729.248 134.193C729.626 133.338 729.815 132.443 729.815 131.509C729.815 130.435 729.556 129.505 729.039 128.719C728.532 127.934 727.836 127.327 726.951 126.9C726.066 126.472 725.072 126.259 723.968 126.259C722.795 126.259 721.771 126.502 720.896 126.989C720.03 127.467 719.359 128.138 718.882 129.003C718.415 129.868 718.181 130.882 718.181 132.045H714.661C714.661 130.256 715.074 128.685 715.899 127.332C716.724 125.98 717.848 124.926 719.27 124.17C720.702 123.415 722.307 123.037 724.087 123.037C725.877 123.037 727.463 123.415 728.845 124.17C730.227 124.926 731.311 125.945 732.097 127.228C732.882 128.511 733.275 129.938 733.275 131.509C733.275 132.632 733.071 133.731 732.663 134.805C732.266 135.869 731.57 137.057 730.575 138.369C729.591 139.672 728.224 141.263 726.474 143.142L719.613 150.48V150.719H733.812V154H714.542ZM740.508 154V123.455H758.824V126.736H744.207V137.057H757.452V140.338H744.207V154H740.508ZM764.622 154V151.315L774.704 140.278C775.888 138.986 776.862 137.862 777.628 136.908C778.393 135.943 778.96 135.038 779.328 134.193C779.706 133.338 779.895 132.443 779.895 131.509C779.895 130.435 779.636 129.505 779.119 128.719C778.612 127.934 777.916 127.327 777.031 126.9C776.146 126.472 775.152 126.259 774.048 126.259C772.875 126.259 771.851 126.502 770.976 126.989C770.111 127.467 769.439 128.138 768.962 129.003C768.495 129.868 768.261 130.882 768.261 132.045H764.741C764.741 130.256 765.154 128.685 765.979 127.332C766.804 125.98 767.928 124.926 769.35 124.17C770.782 123.415 772.388 123.037 774.167 123.037C775.957 123.037 777.543 123.415 778.925 124.17C780.307 124.926 781.391 125.945 782.177 127.228C782.962 128.511 783.355 129.938 783.355 131.509C783.355 132.632 783.151 133.731 782.743 134.805C782.346 135.869 781.65 137.057 780.655 138.369C779.671 139.672 778.304 141.263 776.554 143.142L769.693 150.48V150.719H783.892V154H764.622ZM790.589 154V123.455H808.904V126.736H794.287V137.057H807.532V140.338H794.287V154H790.589ZM814.702 154V151.315L824.784 140.278C825.968 138.986 826.942 137.862 827.708 136.908C828.473 135.943 829.04 135.038 829.408 134.193C829.786 133.338 829.975 132.443 829.975 131.509C829.975 130.435 829.716 129.505 829.199 128.719C828.692 127.934 827.996 127.327 827.111 126.9C826.226 126.472 825.232 126.259 824.128 126.259C822.955 126.259 821.931 126.502 821.056 126.989C820.191 127.467 819.519 128.138 819.042 129.003C818.575 129.868 818.341 130.882 818.341 132.045H814.821C814.821 130.256 815.234 128.685 816.059 127.332C816.884 125.98 818.008 124.926 819.43 124.17C820.862 123.415 822.468 123.037 824.247 123.037C826.037 123.037 827.623 123.415 829.005 124.17C830.387 124.926 831.471 125.945 832.257 127.228C833.042 128.511 833.435 129.938 833.435 131.509C833.435 132.632 833.231 133.731 832.823 134.805C832.426 135.869 831.73 137.057 830.735 138.369C829.751 139.672 828.384 141.263 826.634 143.142L819.773 150.48V150.719H833.972V154H814.702ZM840.669 154V123.455H858.984V126.736H844.367V137.057H857.612V140.338H844.367V154H840.669Z" fill="white"/>
<rect x="970" width="277" height="277" fill="black"/>
<path d="M1042.38 154.418C1040.13 154.418 1038.21 153.806 1036.63 152.583C1035.05 151.35 1033.84 149.565 1033.01 147.229C1032.17 144.882 1031.76 142.048 1031.76 138.727C1031.76 135.426 1032.17 132.607 1033.01 130.271C1033.85 127.924 1035.07 126.134 1036.65 124.901C1038.24 123.658 1040.15 123.037 1042.38 123.037C1044.6 123.037 1046.51 123.658 1048.09 124.901C1049.68 126.134 1050.89 127.924 1051.73 130.271C1052.57 132.607 1052.99 135.426 1052.99 138.727C1052.99 142.048 1052.58 144.882 1051.74 147.229C1050.91 149.565 1049.7 151.35 1048.12 152.583C1046.54 153.806 1044.62 154.418 1042.38 154.418ZM1042.38 151.136C1044.6 151.136 1046.33 150.062 1047.57 147.915C1048.8 145.767 1049.41 142.705 1049.41 138.727C1049.41 136.082 1049.13 133.83 1048.56 131.971C1048.01 130.112 1047.2 128.695 1046.15 127.72C1045.1 126.746 1043.85 126.259 1042.38 126.259C1040.17 126.259 1038.44 127.347 1037.2 129.525C1035.96 131.692 1035.34 134.76 1035.34 138.727C1035.34 141.372 1035.61 143.619 1036.17 145.469C1036.73 147.318 1037.53 148.725 1038.57 149.69C1039.63 150.654 1040.89 151.136 1042.38 151.136ZM1068.62 154.418C1066.38 154.418 1064.46 153.806 1062.88 152.583C1061.3 151.35 1060.09 149.565 1059.26 147.229C1058.42 144.882 1058.01 142.048 1058.01 138.727C1058.01 135.426 1058.42 132.607 1059.26 130.271C1060.1 127.924 1061.32 126.134 1062.9 124.901C1064.49 123.658 1066.4 123.037 1068.62 123.037C1070.85 123.037 1072.76 123.658 1074.34 124.901C1075.93 126.134 1077.14 127.924 1077.98 130.271C1078.82 132.607 1079.24 135.426 1079.24 138.727C1079.24 142.048 1078.83 144.882 1077.99 147.229C1077.16 149.565 1075.95 151.35 1074.37 152.583C1072.79 153.806 1070.87 154.418 1068.62 154.418ZM1068.62 151.136C1070.85 151.136 1072.58 150.062 1073.82 147.915C1075.05 145.767 1075.66 142.705 1075.66 138.727C1075.66 136.082 1075.38 133.83 1074.81 131.971C1074.26 130.112 1073.45 128.695 1072.4 127.72C1071.35 126.746 1070.1 126.259 1068.62 126.259C1066.42 126.259 1064.69 127.347 1063.45 129.525C1062.21 131.692 1061.59 134.76 1061.59 138.727C1061.59 141.372 1061.86 143.619 1062.42 145.469C1062.98 147.318 1063.78 148.725 1064.82 149.69C1065.88 150.654 1067.14 151.136 1068.62 151.136ZM1094.88 154.418C1092.63 154.418 1090.71 153.806 1089.13 152.583C1087.55 151.35 1086.34 149.565 1085.51 147.229C1084.67 144.882 1084.26 142.048 1084.26 138.727C1084.26 135.426 1084.67 132.607 1085.51 130.271C1086.35 127.924 1087.57 126.134 1089.15 124.901C1090.74 123.658 1092.65 123.037 1094.88 123.037C1097.1 123.037 1099.01 123.658 1100.59 124.901C1102.18 126.134 1103.39 127.924 1104.23 130.271C1105.07 132.607 1105.49 135.426 1105.49 138.727C1105.49 142.048 1105.08 144.882 1104.24 147.229C1103.41 149.565 1102.2 151.35 1100.62 152.583C1099.04 153.806 1097.12 154.418 1094.88 154.418ZM1094.88 151.136C1097.1 151.136 1098.83 150.062 1100.07 147.915C1101.3 145.767 1101.91 142.705 1101.91 138.727C1101.91 136.082 1101.63 133.83 1101.06 131.971C1100.51 130.112 1099.7 128.695 1098.65 127.72C1097.6 126.746 1096.35 126.259 1094.88 126.259C1092.67 126.259 1090.94 127.347 1089.7 129.525C1088.46 131.692 1087.84 134.76 1087.84 138.727C1087.84 141.372 1088.11 143.619 1088.67 145.469C1089.23 147.318 1090.03 148.725 1091.07 149.69C1092.13 150.654 1093.39 151.136 1094.88 151.136ZM1121.12 154.418C1118.88 154.418 1116.96 153.806 1115.38 152.583C1113.8 151.35 1112.59 149.565 1111.76 147.229C1110.92 144.882 1110.51 142.048 1110.51 138.727C1110.51 135.426 1110.92 132.607 1111.76 130.271C1112.6 127.924 1113.82 126.134 1115.4 124.901C1116.99 123.658 1118.9 123.037 1121.12 123.037C1123.35 123.037 1125.26 123.658 1126.84 124.901C1128.43 126.134 1129.64 127.924 1130.48 130.271C1131.32 132.607 1131.74 135.426 1131.74 138.727C1131.74 142.048 1131.33 144.882 1130.49 147.229C1129.66 149.565 1128.45 151.35 1126.87 152.583C1125.29 153.806 1123.37 154.418 1121.12 154.418ZM1121.12 151.136C1123.35 151.136 1125.08 150.062 1126.32 147.915C1127.55 145.767 1128.16 142.705 1128.16 138.727C1128.16 136.082 1127.88 133.83 1127.31 131.971C1126.76 130.112 1125.95 128.695 1124.9 127.72C1123.85 126.746 1122.6 126.259 1121.12 126.259C1118.92 126.259 1117.19 127.347 1115.95 129.525C1114.71 131.692 1114.09 134.76 1114.09 138.727C1114.09 141.372 1114.36 143.619 1114.92 145.469C1115.48 147.318 1116.28 148.725 1117.32 149.69C1118.38 150.654 1119.64 151.136 1121.12 151.136ZM1147.38 154.418C1145.13 154.418 1143.21 153.806 1141.63 152.583C1140.05 151.35 1138.84 149.565 1138.01 147.229C1137.17 144.882 1136.76 142.048 1136.76 138.727C1136.76 135.426 1137.17 132.607 1138.01 130.271C1138.85 127.924 1140.07 126.134 1141.65 124.901C1143.24 123.658 1145.15 123.037 1147.38 123.037C1149.6 123.037 1151.51 123.658 1153.09 124.901C1154.68 126.134 1155.89 127.924 1156.73 130.271C1157.57 132.607 1157.99 135.426 1157.99 138.727C1157.99 142.048 1157.58 144.882 1156.74 147.229C1155.91 149.565 1154.7 151.35 1153.12 152.583C1151.54 153.806 1149.62 154.418 1147.38 154.418ZM1147.38 151.136C1149.6 151.136 1151.33 150.062 1152.57 147.915C1153.8 145.767 1154.41 142.705 1154.41 138.727C1154.41 136.082 1154.13 133.83 1153.56 131.971C1153.01 130.112 1152.2 128.695 1151.15 127.72C1150.1 126.746 1148.85 126.259 1147.38 126.259C1145.17 126.259 1143.44 127.347 1142.2 129.525C1140.96 131.692 1140.34 134.76 1140.34 138.727C1140.34 141.372 1140.61 143.619 1141.17 145.469C1141.73 147.318 1142.53 148.725 1143.57 149.69C1144.63 150.654 1145.89 151.136 1147.38 151.136ZM1173.62 154.418C1171.38 154.418 1169.46 153.806 1167.88 152.583C1166.3 151.35 1165.09 149.565 1164.26 147.229C1163.42 144.882 1163.01 142.048 1163.01 138.727C1163.01 135.426 1163.42 132.607 1164.26 130.271C1165.1 127.924 1166.32 126.134 1167.9 124.901C1169.49 123.658 1171.4 123.037 1173.62 123.037C1175.85 123.037 1177.76 123.658 1179.34 124.901C1180.93 126.134 1182.14 127.924 1182.98 130.271C1183.82 132.607 1184.24 135.426 1184.24 138.727C1184.24 142.048 1183.83 144.882 1182.99 147.229C1182.16 149.565 1180.95 151.35 1179.37 152.583C1177.79 153.806 1175.87 154.418 1173.62 154.418ZM1173.62 151.136C1175.85 151.136 1177.58 150.062 1178.82 147.915C1180.05 145.767 1180.66 142.705 1180.66 138.727C1180.66 136.082 1180.38 133.83 1179.81 131.971C1179.26 130.112 1178.45 128.695 1177.4 127.72C1176.35 126.746 1175.1 126.259 1173.62 126.259C1171.42 126.259 1169.69 127.347 1168.45 129.525C1167.21 131.692 1166.59 134.76 1166.59 138.727C1166.59 141.372 1166.86 143.619 1167.42 145.469C1167.98 147.318 1168.78 148.725 1169.82 149.69C1170.88 150.654 1172.14 151.136 1173.62 151.136Z" fill="white"/>
<rect x="324" width="277" height="277" fill="#EB1A2C"/>
<path d="M387.544 154V123.455H405.978V126.736H391.242V137.057H405.024V140.338H391.242V150.719H406.217V154H387.544ZM412.645 154V123.455H423.324C425.452 123.455 427.207 123.822 428.589 124.558C429.971 125.284 431 126.263 431.676 127.496C432.353 128.719 432.691 130.077 432.691 131.568C432.691 132.881 432.457 133.964 431.99 134.82C431.532 135.675 430.926 136.351 430.17 136.848C429.424 137.345 428.614 137.713 427.739 137.952V138.25C428.674 138.31 429.613 138.638 430.558 139.234C431.502 139.831 432.293 140.686 432.929 141.8C433.566 142.913 433.884 144.276 433.884 145.886C433.884 147.418 433.536 148.795 432.84 150.018C432.144 151.241 431.045 152.21 429.544 152.926C428.042 153.642 426.088 154 423.682 154H412.645ZM416.344 150.719H423.682C426.098 150.719 427.813 150.251 428.828 149.317C429.852 148.372 430.364 147.229 430.364 145.886C430.364 144.852 430.1 143.898 429.573 143.023C429.046 142.138 428.296 141.432 427.321 140.905C426.347 140.368 425.193 140.099 423.861 140.099H416.344V150.719ZM416.344 136.878H423.205C424.318 136.878 425.323 136.659 426.218 136.222C427.122 135.784 427.838 135.168 428.365 134.372C428.902 133.577 429.171 132.642 429.171 131.568C429.171 130.226 428.703 129.087 427.769 128.153C426.834 127.208 425.353 126.736 423.324 126.736H416.344V136.878ZM450.163 123.455V154H446.464V127.332H446.285L438.828 132.284V128.526L446.464 123.455H450.163ZM460.738 154H456.86L468.076 123.455H471.894L483.11 154H479.232L470.104 128.287H469.866L460.738 154ZM462.17 142.068H477.8V145.349H462.17V142.068ZM487.331 154V151.315L497.413 140.278C498.597 138.986 499.571 137.862 500.337 136.908C501.102 135.943 501.669 135.038 502.037 134.193C502.415 133.338 502.604 132.443 502.604 131.509C502.604 130.435 502.345 129.505 501.828 128.719C501.321 127.934 500.625 127.327 499.74 126.9C498.855 126.472 497.861 126.259 496.757 126.259C495.584 126.259 494.56 126.502 493.685 126.989C492.82 127.467 492.148 128.138 491.671 129.003C491.204 129.868 490.97 130.882 490.97 132.045H487.45C487.45 130.256 487.863 128.685 488.688 127.332C489.513 125.98 490.637 124.926 492.059 124.17C493.491 123.415 495.097 123.037 496.876 123.037C498.666 123.037 500.252 123.415 501.634 124.17C503.016 124.926 504.1 125.945 504.886 127.228C505.671 128.511 506.064 129.938 506.064 131.509C506.064 132.632 505.86 133.731 505.452 134.805C505.055 135.869 504.359 137.057 503.364 138.369C502.38 139.672 501.013 141.263 499.263 143.142L492.402 150.48V150.719H506.601V154H487.331ZM537.877 133H534.178C533.959 131.936 533.577 131.001 533.03 130.196C532.493 129.391 531.837 128.714 531.061 128.168C530.295 127.611 529.445 127.193 528.511 126.915C527.576 126.636 526.601 126.497 525.587 126.497C523.738 126.497 522.062 126.964 520.561 127.899C519.07 128.834 517.881 130.211 516.996 132.031C516.121 133.85 515.684 136.082 515.684 138.727C515.684 141.372 516.121 143.604 516.996 145.424C517.881 147.244 519.07 148.621 520.561 149.555C522.062 150.49 523.738 150.957 525.587 150.957C526.601 150.957 527.576 150.818 528.511 150.54C529.445 150.261 530.295 149.849 531.061 149.302C531.837 148.745 532.493 148.064 533.03 147.259C533.577 146.443 533.959 145.509 534.178 144.455H537.877C537.599 146.016 537.092 147.413 536.356 148.646C535.62 149.879 534.705 150.928 533.611 151.793C532.518 152.648 531.29 153.299 529.927 153.746C528.575 154.194 527.128 154.418 525.587 154.418C522.982 154.418 520.665 153.781 518.637 152.509C516.609 151.236 515.013 149.426 513.849 147.08C512.686 144.733 512.104 141.949 512.104 138.727C512.104 135.506 512.686 132.722 513.849 130.375C515.013 128.028 516.609 126.219 518.637 124.946C520.665 123.673 522.982 123.037 525.587 123.037C527.128 123.037 528.575 123.261 529.927 123.708C531.29 124.156 532.518 124.812 533.611 125.677C534.705 126.532 535.62 127.576 536.356 128.809C537.092 130.032 537.599 131.429 537.877 133Z" fill="white"/>
<rect width="277" height="277" fill="white"/>
<path d="M67.7477 154V123.455H86.063V126.736H71.4466V137.057H84.6909V140.338H71.4466V154H67.7477ZM92.3981 154V123.455H110.713V126.736H96.0969V137.057H109.341V140.338H96.0969V154H92.3981ZM117.048 154V123.455H135.364V126.736H120.747V137.057H133.992V140.338H120.747V154H117.048ZM141.699 154V123.455H160.014V126.736H145.398V137.057H158.642V140.338H145.398V154H141.699ZM166.349 154V123.455H184.665V126.736H170.048V137.057H183.292V140.338H170.048V154H166.349ZM191 154V123.455H209.315V126.736H194.699V137.057H207.943V140.338H194.699V154H191Z" fill="#8A8A8A"/>
</svg>
