<svg width="190" height="177" viewBox="0 0 190 177" fill="none" xmlns="http://www.w3.org/2000/svg">
<path d="M118.075 0V69.1865H59.5451V0H118.075ZM94.3771 25.248L92.5012 24.5488C91.5874 24.2071 90.9437 23.3882 90.8244 22.4268L90.467 19.4619L64.9807 9.41699C65.5926 10.9428 65.9499 12.3659 66.1486 13.4785L86.8351 22.0527L66.2521 14.1064C66.4177 15.1865 66.4268 15.8597 66.4269 15.8701L94.5441 26.7256L94.7023 28.1006C94.6186 28.0808 81.8559 25.0763 68.4142 28.4268C68.4385 28.4488 70.1643 30.0418 69.2726 35.9443L63.59 66.7705C63.611 66.7648 85.1012 60.9087 99.2639 65.4043C93.4387 61.415 86.1437 60.3574 86.1437 60.3574L86.0246 48.8262C83.2119 47.5305 80.4462 47.343 80.4142 47.3408L79.8732 59.7139C74.7237 59.5868 70.758 60.4209 70.758 60.4209L75.1926 31.3906C77.4467 30.9873 81.1021 30.8277 81.1369 30.8262L80.6525 41.9443C83.1558 42.1828 85.9611 43.2793 85.9611 43.2793L85.8098 30.8027C85.8098 30.8027 90.5226 30.8106 95.3146 32.1377L91.7941 32.0186L93.6301 58.0371C93.6507 58.0495 96.74 59.9131 100.003 60.1904L96.1652 27.3613L98.2394 28.1641C98.867 28.4025 99.3041 28.9588 99.3996 29.6182L99.7971 32.4717L115.246 38.7021C116.285 35.9296 116.159 34.6388 114.849 32.7422L95.9904 25.8438L95.6486 22.8877L99.3596 23.9922L95.3781 4.53027C93.7364 2.54063 93.3711 2.25108 92.9943 2.14551L94.631 17.6738L91.8019 1.74805C91.5841 1.21747 91.405 1.05589 91.007 0.954102L94.3771 25.248Z" fill="black"/>
<path d="M18.8662 88.7215V130.944C18.8662 131.532 18.5722 131.826 17.9841 131.826H12.3894C11.8013 131.826 11.5073 131.532 11.5073 130.944V112.976H7.35895V130.944C7.35895 131.532 7.06491 131.826 6.47683 131.826H0.88212C0.29404 131.826 0 131.532 0 130.944V88.7215C0 88.1334 0.29404 87.8394 0.88212 87.8394H6.47683C7.06491 87.8394 7.35895 88.1334 7.35895 88.7215V105.625H11.5073V88.7215C11.5073 88.1334 11.8013 87.8394 12.3894 87.8394H17.9841C18.5722 87.8394 18.8662 88.1334 18.8662 88.7215Z" fill="black"/>
<path d="M189.322 130.944C189.409 131.532 189.155 131.826 188.567 131.826H182.853C182.305 131.826 181.995 131.532 181.907 130.944L181.407 124.157H177.513L177.012 130.944C176.925 131.532 176.615 131.826 176.066 131.826H170.352C169.764 131.826 169.51 131.532 169.598 130.944L174.31 88.7215C174.398 88.1334 174.731 87.8394 175.311 87.8394H183.608C184.196 87.8394 184.53 88.1334 184.617 88.7215L189.322 130.944ZM180.906 117.124L179.714 100.094H179.213L178.021 117.124H180.906Z" fill="black"/>
<path d="M47.4517 130.944C47.5391 131.532 47.2848 131.826 46.6968 131.826H40.9828C40.4345 131.826 40.1246 131.532 40.0371 130.944L39.5365 124.157H35.6424L35.1418 130.944C35.0544 131.532 34.7444 131.826 34.1961 131.826H28.4822C27.8941 131.826 27.6398 131.532 27.7272 130.944L32.4398 88.7215C32.5272 88.1334 32.861 87.8394 33.4411 87.8394H41.7378C42.3259 87.8394 42.6597 88.1334 42.7471 88.7215L47.4517 130.944ZM39.0358 117.124L37.8438 100.094H37.3431L36.151 117.124H39.0358Z" fill="black"/>
<path d="M80.8133 88.7215V130.944C80.8133 131.532 80.5193 131.826 79.9312 131.826H73.8994C73.3113 131.826 73.0173 131.532 73.0173 130.944V111.092L68.8689 127.304C68.7815 127.511 68.6782 127.622 68.551 127.622C68.4239 127.622 68.3206 127.519 68.2411 127.304L64.0928 111.092V130.944C64.0928 131.532 63.7987 131.826 63.2106 131.826H57.1788C56.5908 131.826 56.2967 131.532 56.2967 130.944V88.7215C56.2967 88.1334 56.5908 87.8394 57.1788 87.8394H62.5192C62.7736 87.8394 62.9881 87.9347 63.1789 88.1254C63.3696 88.3162 63.5047 88.5149 63.5841 88.7215L68.551 111.212L73.5179 88.7215C73.6053 88.5149 73.7404 88.3162 73.9232 88.1254C74.114 87.9347 74.3285 87.8394 74.5828 87.8394H79.9232C80.5193 87.8394 80.8133 88.1334 80.8133 88.7215Z" fill="black"/>
<path d="M103.621 88.0301C104.583 88.4513 105.425 89.0155 106.133 89.7228C106.848 90.438 107.412 91.2725 107.833 92.234C108.254 93.1956 108.461 94.2208 108.461 95.3095V97.6937C108.461 98.2817 108.191 98.6552 107.642 98.8221L101.929 100.332C101.38 100.499 101.11 100.292 101.11 99.7043V95.6195C101.11 95.1983 100.967 94.8486 100.673 94.5546C100.379 94.2605 100.021 94.1175 99.608 94.1175H99.1074C98.6862 94.1175 98.3286 94.2685 98.0425 94.5546C97.7484 94.8486 97.6054 95.2062 97.6054 95.6195V101.333C97.6451 101.794 97.7326 102.192 97.8597 102.525C97.9869 102.859 98.2173 103.193 98.5511 103.535L106.784 109.694C107.452 110.282 107.881 110.878 108.072 111.482C108.262 112.086 108.397 112.769 108.477 113.524V124.332C108.477 125.421 108.27 126.446 107.849 127.408C107.428 128.369 106.864 129.212 106.148 129.919C105.433 130.634 104.599 131.198 103.637 131.612C102.676 132.033 101.65 132.239 100.562 132.239H98.1776C97.0888 132.239 96.0637 132.033 95.1021 131.612C94.1405 131.19 93.2981 130.626 92.5908 129.919C91.8756 129.204 91.3113 128.369 90.8981 127.408C90.4769 126.446 90.2703 125.421 90.2703 124.332V118.3C90.2703 117.712 90.5405 117.339 91.0888 117.172L96.8027 115.662C97.3431 115.495 97.6213 115.702 97.6213 116.29V124.014C97.6213 124.435 97.7643 124.793 98.0584 125.079C98.3524 125.373 98.71 125.516 99.1233 125.516H99.6239C100.045 125.516 100.395 125.373 100.689 125.079C100.983 124.785 101.126 124.427 101.126 124.014V115.741C101.086 115.201 100.999 114.716 100.872 114.295C100.744 113.874 100.498 113.5 100.117 113.167L92.0107 106.944C91.3829 106.356 90.9299 105.776 90.6597 105.188C90.3895 104.6 90.2544 103.829 90.2544 102.867V95.3254C90.2544 94.2367 90.461 93.2115 90.8822 92.2499C91.3034 91.2884 91.8676 90.446 92.5749 89.7387C93.2902 89.0234 94.1246 88.4592 95.0862 88.046C96.0478 87.6248 97.0729 87.4181 98.1617 87.4181H100.546C101.635 87.4023 102.66 87.6089 103.621 88.0301Z" fill="black"/>
<path d="M133.653 88.7214V94.3161C133.653 94.9042 133.359 95.1983 132.771 95.1983H128.313V130.952C128.313 131.54 128.019 131.834 127.431 131.834H121.836C121.629 131.834 121.431 131.747 121.24 131.58C121.049 131.413 120.954 131.206 120.954 130.952V95.1903H116.567C115.979 95.1903 115.685 94.8963 115.685 94.3082V88.7135C115.685 88.1254 115.979 87.8314 116.567 87.8314H132.779C133.359 87.8393 133.653 88.1333 133.653 88.7214Z" fill="black"/>
<path d="M162.247 130.944C162.374 131.532 162.159 131.826 161.619 131.826H155.905C155.65 131.826 155.412 131.739 155.182 131.572C154.951 131.405 154.792 131.198 154.713 130.944L150.127 115.551V131.826L150.064 131.198C149.976 131.62 149.706 131.826 149.245 131.826H143.65C143.062 131.826 142.768 131.532 142.768 130.944V88.7215C142.768 88.1334 143.062 87.8394 143.65 87.8394H153.076C154.164 87.8394 155.19 88.046 156.151 88.4672C157.113 88.8884 157.955 89.4526 158.662 90.1678C159.378 90.8831 159.942 91.7175 160.355 92.6791C160.776 93.6407 160.983 94.6659 160.983 95.7546V105.998C160.983 107.548 160.586 108.939 159.791 110.178C158.996 111.418 157.947 112.364 156.652 113.039L162.247 130.944ZM150.119 107.19H152.13C152.551 107.19 152.901 107.047 153.195 106.753C153.489 106.459 153.632 106.102 153.632 105.688V96.0725C153.632 95.6513 153.481 95.3016 153.195 95.0076C152.901 94.7135 152.543 94.5705 152.13 94.5705H150.119V107.19Z" fill="black"/>
<path d="M30.4461 152.104L30.4539 155.263L37.0412 155.247C37.5797 155.245 37.9563 155.137 38.1712 154.921C38.398 154.693 38.5108 154.346 38.5097 153.879L38.5086 153.448C38.5072 152.874 38.3567 152.503 38.0572 152.336C37.7696 152.17 37.3087 152.087 36.6745 152.088L30.4461 152.104ZM26.4854 161.878L26.4535 148.883L38.4794 148.853C39.2452 148.851 39.8797 148.945 40.3827 149.136C40.8857 149.314 41.2812 149.57 41.5692 149.905C41.8692 150.239 42.0796 150.645 42.2004 151.124C42.3213 151.59 42.3824 152.116 42.3838 152.703L42.3858 153.528C42.3869 153.959 42.3579 154.348 42.299 154.695C42.24 155.042 42.127 155.348 41.9602 155.612C41.8053 155.875 41.5785 156.103 41.2798 156.295C40.993 156.475 40.6224 156.62 40.168 156.729L40.1681 156.765C40.4674 156.824 40.7488 156.907 41.0123 157.014C41.2758 157.109 41.5035 157.264 41.6955 157.479C41.8995 157.694 42.0557 157.975 42.1643 158.321C42.2847 158.656 42.3456 159.093 42.347 159.631L42.3524 161.839L38.3677 161.849L38.3638 160.287C38.3622 159.605 38.2414 159.133 38.0014 158.87C37.7734 158.607 37.3483 158.477 36.726 158.478L30.4618 158.494L30.4701 161.868L26.4854 161.878ZM46.7766 157.269L46.7671 153.392C46.7648 152.447 46.8885 151.669 47.1383 151.058C47.4 150.447 47.7758 149.967 48.2656 149.619C48.7672 149.259 49.3709 149.012 50.0766 148.879C50.7823 148.745 51.5838 148.677 52.4813 148.675L58.8712 148.66C59.7686 148.657 60.5705 148.721 61.2768 148.851C61.9832 148.981 62.5821 149.225 63.0736 149.583C63.577 149.928 63.9551 150.406 64.2079 151.016C64.4726 151.625 64.6062 152.403 64.6085 153.348L64.618 157.225C64.6203 158.182 64.4906 158.967 64.2289 159.578C63.9791 160.176 63.6033 160.656 63.1016 161.016C62.6119 161.364 62.0141 161.605 61.3085 161.739C60.6028 161.872 59.8012 161.94 58.9038 161.942L52.5139 161.958C51.6164 161.96 50.8145 161.896 50.1082 161.766C49.4019 161.636 48.797 161.398 48.2936 161.053C47.8021 160.695 47.424 160.217 47.1593 159.619C46.9065 159.01 46.7789 158.226 46.7766 157.269ZM50.8625 154.62L50.8659 156.02C50.8671 156.487 50.898 156.888 50.9586 157.223C51.0193 157.558 51.1336 157.827 51.3017 158.03C51.4697 158.233 51.7034 158.382 52.0028 158.477C52.3022 158.572 52.6852 158.619 53.1519 158.617L58.2494 158.605C58.7161 158.604 59.0989 158.555 59.3978 158.459C59.6967 158.362 59.9297 158.212 60.0967 158.008C60.2637 157.804 60.3768 157.535 60.4358 157.2C60.4948 156.864 60.5237 156.463 60.5226 155.997L60.5191 154.597C60.5181 154.19 60.4813 153.831 60.4088 153.52C60.3482 153.197 60.2278 152.922 60.0478 152.695C59.8677 152.468 59.616 152.295 59.2926 152.177C58.9693 152.058 58.5443 151.999 58.0178 152L53.351 152.012C52.8245 152.013 52.3999 152.074 52.0771 152.194C51.7543 152.315 51.5034 152.489 51.3245 152.717C51.1456 152.944 51.0206 153.22 50.9496 153.543C50.8905 153.855 50.8615 154.214 50.8625 154.62ZM68.7159 157.215L68.7063 153.338C68.704 152.393 68.8278 151.615 69.0776 151.004C69.3393 150.393 69.7151 149.913 70.2048 149.565C70.7065 149.205 71.3102 148.958 72.0159 148.825C72.7216 148.691 73.5231 148.624 74.4206 148.621L80.8105 148.606C81.7079 148.604 82.5098 148.667 83.2161 148.797C83.9224 148.927 84.5213 149.171 85.0128 149.529C85.5163 149.875 85.8944 150.352 86.1472 150.962C86.4119 151.572 86.5454 152.349 86.5478 153.294L86.5573 157.171C86.5596 158.129 86.4299 158.913 86.1682 159.524C85.9183 160.123 85.5426 160.602 85.0409 160.962C84.5511 161.311 83.9534 161.551 83.2477 161.685C82.5421 161.818 81.7405 161.886 80.843 161.888L74.4532 161.904C73.5557 161.906 72.7538 161.842 72.0475 161.712C71.3412 161.582 70.7363 161.344 70.2329 160.999C69.7414 160.641 69.3633 160.163 69.0986 159.566C68.8458 158.956 68.7182 158.172 68.7159 157.215ZM72.8018 154.567L72.8052 155.967C72.8064 156.433 72.8373 156.834 72.8979 157.169C72.9586 157.504 73.0729 157.773 73.2409 157.976C73.409 158.179 73.6427 158.328 73.942 158.423C74.2414 158.518 74.6245 158.565 75.0911 158.564L80.1887 158.551C80.6554 158.55 81.0382 158.501 81.3371 158.405C81.636 158.308 81.869 158.158 82.036 157.954C82.203 157.75 82.316 157.481 82.375 157.146C82.434 156.811 82.463 156.41 82.4618 155.943L82.4584 154.543C82.4574 154.136 82.4206 153.777 82.3481 153.466C82.2874 153.143 82.1671 152.868 81.9871 152.641C81.807 152.415 81.5553 152.242 81.2319 152.123C80.9085 152.004 80.4836 151.945 79.9571 151.946L75.2903 151.958C74.7638 151.959 74.3392 152.02 74.0164 152.14C73.6936 152.261 73.4427 152.435 73.2638 152.663C73.0849 152.891 72.9599 153.166 72.8889 153.489C72.8298 153.801 72.8008 154.16 72.8018 154.567ZM90.9535 161.72L90.9216 148.725L104.491 148.691L104.499 151.814L94.914 151.838L94.9199 154.261L104.056 154.239L104.063 157.254L94.9273 157.276L94.9382 161.71L90.9535 161.72ZM109.112 161.675L109.08 148.68L113.065 148.67L113.096 161.665L109.112 161.675ZM117.987 161.653L117.955 148.658L124.13 148.643L131.638 158.066L131.674 158.066L131.651 148.625L135.635 148.615L135.667 161.61L129.493 161.625L121.985 152.202L121.949 152.202L121.972 161.644L117.987 161.653ZM140.031 157.04L140.022 153.163C140.019 152.218 140.143 151.44 140.393 150.829C140.655 150.218 141.031 149.738 141.52 149.39C142.022 149.03 142.626 148.783 143.331 148.65C144.037 148.516 144.839 148.449 145.736 148.446L151.731 148.432C152.856 148.429 153.76 148.529 154.442 148.73C155.125 148.92 155.646 149.194 156.006 149.552C156.366 149.91 156.6 150.346 156.709 150.861C156.83 151.375 156.891 151.949 156.893 152.583L156.894 152.996L152.981 153.006C152.98 152.683 152.931 152.426 152.835 152.234C152.751 152.043 152.619 151.9 152.439 151.804C152.272 151.697 152.062 151.632 151.811 151.609C151.571 151.573 151.29 151.556 150.967 151.557L146.641 151.567C146.139 151.569 145.72 151.606 145.385 151.678C145.062 151.751 144.805 151.889 144.614 152.093C144.435 152.297 144.304 152.578 144.221 152.937C144.15 153.285 144.116 153.734 144.117 154.284L144.121 155.899C144.122 156.462 144.159 156.916 144.232 157.263C144.317 157.61 144.449 157.885 144.629 158.088C144.821 158.291 145.078 158.428 145.402 158.499C145.737 158.57 146.156 158.605 146.658 158.603L150.912 158.593C151.176 158.592 151.427 158.58 151.666 158.555C151.917 158.519 152.139 158.452 152.33 158.356C152.533 158.26 152.694 158.116 152.813 157.924C152.932 157.732 152.992 157.481 152.991 157.17L152.99 156.793L148.036 156.805L148.029 154.113L156.968 154.091L156.977 157.788C156.979 158.722 156.856 159.452 156.606 159.979C156.356 160.506 155.968 160.896 155.442 161.149C154.928 161.401 154.264 161.558 153.451 161.62C152.649 161.682 151.686 161.714 150.561 161.717L145.769 161.729C144.871 161.731 144.069 161.667 143.363 161.537C142.657 161.407 142.052 161.17 141.548 160.824C141.057 160.466 140.679 159.988 140.414 159.391C140.161 158.781 140.034 157.997 140.031 157.04Z" fill="black"/>
<line x1="26.6053" y1="174.835" x2="158.365" y2="174.835" stroke="black" stroke-width="2.53383"/>
</svg>
